<svg xmlns="http://www.w3.org/2000/svg" width="88" height="92" viewBox="0 0 88 92" fill="none">
<path d="M83.0249 46.1388H83.2449H83.819C84.2949 46.1388 84.7789 45.7743 84.8973 45.3008L84.8986 45.2958L86.4774 39.5548L86.4805 39.5434L86.4808 39.5435C87.0103 37.9553 85.9565 36.3885 84.2496 36.3885H82.9579H82.7967L82.7481 36.2348L73.8495 8.10379L73.8025 7.95505L73.9273 7.86144C75.0263 7.03715 75.7051 5.80786 75.7051 4.4493C75.7051 2.13086 73.7943 0.22 71.4758 0.22C69.1483 0.22 67.103 2.13978 67.103 4.4493C67.103 4.74189 67.1062 4.97789 67.2233 5.21207L67.2942 5.35389L67.1821 5.46602L26.2773 46.3709L26.0574 46.5907L25.9232 46.3102L24.3514 43.0236C24.0984 42.6511 23.7345 42.4166 23.2512 42.4166H15.2137C14.9015 42.4166 14.6701 42.5089 14.5012 42.6637C14.3297 42.821 14.2034 43.0605 14.1379 43.3869C14.1379 43.3873 14.1378 43.3876 14.1377 43.3879L13.922 43.3448C13.6418 44.816 12.8144 48.7835 12.0408 52.4932C11.2295 56.3836 10.4774 59.9904 10.4774 60.1373L83.0249 46.1388ZM83.0249 46.1388V46.3588V52.2434C83.0249 52.969 82.4203 53.4586 81.8097 53.4586C79.8223 53.4586 78.2886 54.9924 78.2886 56.9797C78.2886 58.9671 79.8223 60.5008 81.8097 60.5008C83.797 60.5008 85.3308 58.9671 85.3308 56.9797C85.3308 56.2541 85.9353 55.7645 86.546 55.7645C87.2716 55.7645 87.7613 56.3691 87.7613 56.9797C87.7613 60.1593 85.1328 62.7878 81.9532 62.7878C78.7736 62.7878 76.1451 60.1593 76.1451 56.9797C76.1451 54.2049 77.946 51.8614 80.5633 51.3104L80.7379 51.2737V51.0952V46.3588V46.1388H80.5179H79.9438C79.468 46.1388 78.9839 45.7743 78.8655 45.3008L78.8656 45.3008L78.8642 45.2958L77.2854 39.5548L77.2831 39.5462L77.2801 39.5379C76.7552 38.0945 77.8086 36.3885 79.5133 36.3885H80.0874H80.3891L80.2968 36.1012L71.5418 8.83135L71.4927 8.6786H71.3323C70.2436 8.6786 69.2874 8.27165 68.4591 7.58138L68.3045 7.45254L68.1624 7.5951L27.2576 48.6435L27.1459 48.7556L27.2166 48.8971L32.0965 58.6569L32.1125 58.6888L32.1377 58.7141C32.1807 58.757 32.197 58.7932 32.2054 58.8271C32.2158 58.8684 32.2168 58.9132 32.2168 58.9891V59.2091H32.4368H38.0343H38.2543V58.9891V45.2106C38.2543 44.485 38.8589 43.9954 39.4696 43.9954H40.1872C53.1278 43.9954 63.7938 54.5195 63.936 67.4595L63.9379 67.6305L64.104 67.6709C69.3171 68.9389 73.1217 73.5879 73.1217 79.2262V79.8003C73.1217 86.4245 67.7662 91.78 61.142 91.78H12.1997C5.57548 91.78 0.22 86.4245 0.22 79.8003V79.2262C0.22 73.1635 4.73212 68.0923 10.504 67.3884L10.6974 67.3648V67.17V60.144L83.0249 46.1388ZM40.4827 46.139L40.2543 46.1302V46.3588V59.9938V66.883V67.103H40.4743H60.8549H60.9984H61.2242L61.2184 66.8774C60.9282 55.5628 51.7901 46.5739 40.4827 46.139ZM12.8408 66.883V67.103H13.0608H37.3837H37.6037H37.7473V66.883H37.8237V61.429V61.209H37.6037H13.0608H12.8408V61.429V66.883ZM13.276 58.6572L13.2209 58.922H13.4914H29.1357H29.4884L29.3333 58.6053L22.5876 44.8268L22.5273 44.7036H22.39H16.3619H16.183L16.1466 44.8787L13.276 58.6572ZM79.8003 38.6755H79.5123L79.5881 38.9534L80.8798 43.6897L80.924 43.8518H81.092H82.8143H82.9824L83.0266 43.6897L84.3183 38.9534L84.1193 38.8991V38.6755H84.1192H84.1189H84.1186H84.1181H84.1176H84.1169H84.1162H84.1161H84.1153H84.1152H84.1144H84.1142H84.1133H84.1132H84.1122H84.112H84.1109H84.1106H84.1096H84.1092H84.1081H84.1077H84.1066H84.1061H84.105H84.1033H84.1014H84.0995H84.0975H84.0954H84.0932H84.091H84.0886H84.0861H84.0835H84.0809H84.0781H84.0753H84.0724H84.0694H84.0663H84.0631H84.0598H84.0565H84.053H84.0495H84.0458H84.0421H84.0383H84.0344H84.0305H84.0264H84.0223H84.0181H84.0138H84.0094H84.0049H84.0004H83.9957H83.991H83.9862H83.9813H83.9764H83.9713H83.9662H83.961H83.9558H83.9504H83.945H83.9395H83.938H83.9339H83.9282H83.9225H83.9167H83.9108H83.9048H83.8988H83.8927H83.8865H83.8803H83.8739H83.8675H83.8611H83.8545H83.8479H83.8412H83.8344H83.8276H83.8207H83.8138H83.8067H83.7996H83.7924H83.7852H83.7779H83.7705H83.7631H83.7556H83.748H83.7404H83.7327H83.7249H83.7171H83.7092H83.7012H83.6932H83.6851H83.677H83.6688H83.6605H83.6522H83.6438H83.6354H83.6269H83.6183H83.6097H83.601H83.5922H83.5834H83.5746H83.5657H83.5567H83.5477H83.5386H83.5295H83.5203H83.511H83.5017H83.4924H83.483H83.4735H83.464H83.4545H83.4449H83.4352H83.4255H83.4157H83.4059H83.396H83.3861H83.3762H83.3662H83.3561H83.346H83.3359H83.3257H83.3154H83.3051H83.2948H83.2844H83.274H83.2635H83.253H83.2425H83.2319H83.2212H83.2106H83.1998H83.1891H83.1783H83.1674H83.1565H83.1456H83.1346H83.1236H83.1126H83.1015H83.0904H83.0792H83.068H83.0568H83.0455H83.0342H83.0229H83.0115H83.0001H82.9887H82.9772H82.9657H82.9542H82.9426H82.931H82.9194H82.9077H82.896H82.8843H82.8725H82.8607H82.8489H82.8371H82.8252H82.8133H82.8014H82.7894H82.7774H82.7654H82.7534H82.7413H82.7292H82.7171H82.705H82.6928H82.6807H82.6684H82.6562H82.644H82.6317H82.6194H82.6071H82.5948H82.5824H82.57H82.5576H82.5452H82.5328H82.5203H82.5079H82.4954H82.4829H82.4704H82.4578H82.4453H82.4327H82.4201H82.4075H82.3949H82.3823H82.3696H82.357H82.3443H82.3316H82.319H82.3063H82.2935H82.2808H82.2681H82.2553H82.2426H82.2298H82.2171H82.2043H82.1915H82.1787H82.1659H82.1531H82.1403H82.1275H82.1147H82.1018H82.089H82.0762H82.0633H82.0505H82.0376H82.0248H82.0119H81.9991H81.9862H81.9734H81.9605H81.9477H81.9348H81.922H81.9091H81.8963H81.8834H81.8706H81.8577H81.8449H81.832H81.8192H81.8064H81.7936H81.7807H81.7679H81.7551H81.7423H81.7295H81.7167H81.704H81.6912H81.6784H81.6657H81.6529H81.6402H81.6275H81.6147H81.602H81.5893H81.5767H81.564H81.5513H81.5387H81.5261H81.5135H81.5008H81.4883H81.4757H81.4631H81.4506H81.4381H81.4256H81.4131H81.4006H81.3881H81.3757H81.3633H81.3509H81.3385H81.3261H81.3138H81.3014H81.2891H81.2769H81.2646H81.2524H81.2402H81.228H81.2158H81.2037H81.1915H81.1794H81.1674H81.1553H81.1433H81.1313H81.1193H81.1074H81.0955H81.0836H81.0718H81.0599H81.0481H81.0364H81.0246H81.0129H81.0012H80.9896H80.978H80.9664H80.9548H80.9433H80.9318H80.9204H80.909H80.8976H80.8862H80.8749H80.8636H80.8524H80.8412H80.83H80.8189H80.8078H80.7967H80.7857H80.7747H80.7638H80.7529H80.742H80.7312H80.7204H80.7097H80.699H80.6883H80.6777H80.6672H80.6566H80.6461H80.6357H80.6253H80.615H80.6046H80.5944H80.5842H80.574H80.5639H80.5538H80.5438H80.5338H80.5239H80.514H80.5042H80.4944H80.4846H80.475H80.4653H80.4558H80.4462H80.4368H80.4273H80.418H80.4086H80.3994H80.3902H80.381H80.3719H80.3629H80.3539H80.345H80.3361H80.3273H80.3185H80.3098H80.3011H80.2926H80.284H80.2756H80.2672H80.2588H80.2505H80.2423H80.2341H80.226H80.218H80.21H80.2021H80.1942H80.1864H80.1787H80.1711H80.1635H80.1559H80.1485H80.1411H80.1337H80.1265H80.1193H80.1121H80.1051H80.0981H80.0912H80.0843H80.0775H80.0708H80.0642H80.0576H80.0511H80.0447H80.0383H80.032H80.0258H80.0197H80.0136H80.0076H80.0017H79.9959H79.9901H79.9844H79.9788H79.9733H79.9678H79.9624H79.9571H79.9519H79.9468H79.9417H79.9367H79.9318H79.927H79.9222H79.9176H79.913H79.9085H79.9041H79.8997H79.8955H79.8913H79.8872H79.8832H79.8793H79.8755H79.8717H79.8681H79.8645H79.861H79.8576H79.8543H79.8511H79.8479H79.8449H79.8419H79.8391H79.8363H79.8336H79.831H79.8285H79.8261H79.8238H79.8216H79.8194H79.8174H79.8154H79.8136H79.8118H79.8102H79.8086H79.8071H79.8057H79.8045H79.8033H79.8022H79.8012H79.8003ZM70.5476 79.6568V79.0827C70.5476 73.7921 66.2847 69.5335 60.8549 69.5335H39.039H11.9126C6.62421 69.5335 2.36346 73.7943 2.36346 79.0827V79.6568C2.36346 84.9452 6.62421 89.206 11.9126 89.206H60.9984C66.2869 89.206 70.5476 84.9452 70.5476 79.6568ZM69.39 4.4493V4.45972C69.39 4.59484 69.39 4.71851 69.4109 4.84428C69.4333 4.97872 69.4778 5.10748 69.5567 5.26531C69.7955 5.74279 70.1942 6.10356 70.639 6.28552C71.073 6.46308 71.5641 6.47415 71.9866 6.23593C72.8135 6.04935 73.2746 5.22664 73.2746 4.4493C73.2746 3.32311 72.4585 2.50699 71.3323 2.50699C70.2061 2.50699 69.39 3.32312 69.39 4.4493Z" fill="#231F20" stroke="white" stroke-width="0.44"/>
<path d="M5.57422 79.647C5.57422 82.7212 8.0766 85.2206 11.1478 85.2206C14.2191 85.2206 16.7245 82.7182 16.7245 79.647C16.7245 76.5757 14.2221 74.0703 11.1478 74.0703C8.07358 74.0703 5.57422 76.5727 5.57422 79.647ZM6.82087 79.647C6.82087 77.2596 8.76347 75.317 11.1478 75.317C13.5322 75.317 15.4748 77.2596 15.4748 79.647C15.4748 82.0344 13.5322 83.9739 11.1478 83.9739C8.76347 83.9739 6.82087 82.0344 6.82087 79.647Z" fill="#F96302"/>
<path d="M22.3008 79.647C22.3008 82.7212 24.8032 85.2206 27.8744 85.2206C30.9457 85.2206 33.4511 82.7182 33.4511 79.647C33.4511 76.5757 30.9487 74.0703 27.8744 74.0703C24.8001 74.0703 22.3008 76.5727 22.3008 79.647ZM23.5474 79.647C23.5474 77.2596 25.49 75.317 27.8744 75.317C30.2588 75.317 32.2014 77.2596 32.2014 79.647C32.2014 82.0344 30.2588 83.9739 27.8744 83.9739C25.49 83.9739 23.5474 82.0344 23.5474 79.647Z" fill="#F96302"/>
<path d="M38.2305 79.647C38.2305 82.7212 40.7329 85.2206 43.8041 85.2206C46.8753 85.2206 49.3807 82.7182 49.3807 79.647C49.3807 76.5757 46.8784 74.0703 43.8041 74.0703C40.7298 74.0703 38.2305 76.5727 38.2305 79.647ZM39.4771 79.647C39.4771 77.2596 41.4197 75.317 43.8041 75.317C46.1885 75.317 48.1311 77.2596 48.1311 79.647C48.1311 82.0344 46.1885 83.9739 43.8041 83.9739C41.4197 83.9739 39.4771 82.0344 39.4771 79.647Z" fill="#F96302"/>
<path d="M54.9551 79.647C54.9551 82.7212 57.4575 85.2206 60.5287 85.2206C63.5999 85.2206 66.1054 82.7182 66.1054 79.647C66.1054 76.5757 63.603 74.0703 60.5287 74.0703C57.4544 74.0703 54.9551 76.5727 54.9551 79.647ZM56.2017 79.647C56.2017 77.2596 58.1443 75.317 60.5287 75.317C62.9131 75.317 64.8557 77.2596 64.8557 79.647C64.8557 82.0344 62.9131 83.9739 60.5287 83.9739C58.1443 83.9739 56.2017 82.0344 56.2017 79.647Z" fill="#F96302"/>
</svg>