<svg xmlns="http://www.w3.org/2000/svg" width="106" height="80" viewBox="0 0 106 80" fill="none">
<path d="M64.4313 59.3359C68.2743 59.3359 71.4023 62.4695 71.4023 66.3194C71.4023 70.1692 68.2743 73.3028 64.4313 73.3028C61.3192 73.3028 58.6267 71.2418 57.7638 68.3083H20.6992C19.8323 71.2418 17.1398 73.3028 14.0278 73.3028C10.1847 73.3028 7.06068 70.1692 7.06068 66.3194C7.06068 62.4695 10.1887 59.3359 14.0278 59.3359H64.4313ZM64.4313 61.1688H14.0278C11.1914 61.1688 8.88635 63.482 8.88635 66.3194C8.88635 69.1568 11.1914 71.4699 14.0278 71.4699C16.5126 71.4699 18.6379 69.685 19.0773 67.2278C19.1572 66.7916 19.5327 66.4714 19.9762 66.4714H58.4829C58.9263 66.4714 59.3018 66.7916 59.3817 67.2278C59.8212 69.685 61.9424 71.4699 64.4313 71.4699C67.2676 71.4699 69.5727 69.1568 69.5727 66.3194C69.5727 63.482 67.2636 61.1688 64.4313 61.1688Z" fill="#F96302"/>
<path d="M105.961 70.8755C106.044 71.1517 105.992 71.4558 105.825 71.6879C105.653 71.924 105.377 72.0601 105.09 72.0601H97.5113C97.1758 72.0601 96.8682 71.876 96.7044 71.5799L90.6082 60.2463C88.4869 60.1503 86.7851 58.4054 86.7771 56.2564L80.9925 51.1218C80.2055 51.9903 79.0829 52.5465 77.8205 52.5465C76.698 52.5465 75.6873 52.1063 74.9203 51.398C74.2491 52.8987 72.8429 53.9872 71.1611 54.2274C75.3557 56.5885 78.2001 61.0787 78.2001 66.2333C78.2001 73.825 72.0359 80 64.4576 80H13.7466C6.16825 80 0.00414276 73.825 0.00414276 66.2333C0.00414276 61.0987 2.82852 56.6165 7.00317 54.2514C4.7181 54.0233 2.9164 52.1063 2.9164 49.7532V39.6202C2.9164 38.3476 3.45172 37.127 4.39052 36.2666L9.58387 31.3001V16.3848C8.01388 16.1127 6.81541 14.752 6.81541 13.1032V11.7786C6.81541 9.93765 8.3095 8.44092 10.1471 8.44092H36.6492C36.038 7.67254 35.6545 6.71207 35.6545 5.65555C35.6545 3.17434 37.6679 1.15735 40.1408 1.15735H45.0185C45.5219 1.15735 45.9334 1.56555 45.9334 2.0738V8.44092H49.5447C51.3824 8.44092 52.8765 9.93765 52.8765 11.7786V13.1032C52.8765 14.8521 51.5222 16.2768 49.8084 16.4128L52.6887 28.6908H58.9886V15.3803C58.9886 14.8761 59.3961 14.4639 59.9035 14.4639H61.857V7.3844C61.857 5.73159 61.1818 4.20284 60.0033 3.18634L59.2164 2.50601L58.1777 1.60957C57.7942 1.28141 57.7542 0.701122 58.0858 0.316934C58.4174 -0.0672543 58.9926 -0.107274 59.3762 0.224889L61.1978 1.80166C62.7798 3.16633 63.6866 5.20333 63.6866 7.3884V14.4679H65.6401C66.1435 14.4679 66.555 14.8761 66.555 15.3843V28.6948H70.3901C73.0267 28.6948 75.1679 30.7719 75.3197 33.3771C76.0228 32.8689 76.8817 32.5607 77.8165 32.5607C80.1855 32.5607 82.1111 34.4897 82.1111 36.8629V37.6712L87.9196 43.33C88.6147 42.6177 89.5735 42.1735 90.6361 42.1374L96.9281 30.6558C97.0879 30.3637 97.3955 30.1796 97.7311 30.1796H102.237C102.505 30.1796 102.761 30.2996 102.932 30.4997C103.104 30.7038 103.18 30.976 103.136 31.2401L101.41 41.8613C100.424 47.9203 100.855 54.2234 102.649 60.0942L105.961 70.8755ZM60.8303 28.6948H64.7373V16.3008H60.8303V28.6948ZM37.4962 5.65155C37.4962 7.12027 38.6906 8.31686 40.1567 8.31686H44.1237V2.98624H40.1567C38.6906 2.98624 37.4962 4.18283 37.4962 5.65155ZM10.1591 14.6119H49.5607C50.3916 14.6119 51.0668 13.9356 51.0668 13.1032V11.7786C51.0668 10.9461 50.3916 10.2698 49.5607 10.2698H10.1591C9.3282 10.2698 8.65307 10.9461 8.65307 11.7786V13.1032C8.65307 13.9356 9.3282 14.6119 10.1591 14.6119ZM30.1575 46.5316H42.8613V32.6088H30.1575V36.8188H33.7689C34.2723 36.8188 34.6837 37.227 34.6837 37.7353C34.6837 38.2435 34.2763 38.6517 33.7689 38.6517H30.1575V46.5356V46.5316ZM31.0124 30.7759V16.4408H20.9893V26.6138C20.9893 28.9069 22.8509 30.7759 25.144 30.7759H31.0124ZM42.8613 30.7759V16.4408H32.8381V30.7759H42.8613ZM64.4616 54.2954H13.7505C7.18295 54.2954 1.83779 59.65 1.83779 66.2292C1.83779 72.8085 7.18295 78.1631 13.7505 78.1631H21.6884V74.8775C21.6884 74.3732 22.0959 73.961 22.6032 73.961C23.1106 73.961 23.518 74.3692 23.518 74.8775V78.1631H28.2919V74.8775C28.2919 74.3732 28.6994 73.961 29.2068 73.961C29.7141 73.961 30.1216 74.3692 30.1216 74.8775V78.1631H34.8955V74.8775C34.8955 74.3732 35.303 73.961 35.8103 73.961C36.3177 73.961 36.7251 74.3692 36.7251 74.8775V78.1631H41.499V74.8775C41.499 74.3732 41.9065 73.961 42.4139 73.961C42.9212 73.961 43.3287 74.3692 43.3287 74.8775V78.1631H48.1026V74.8775C48.1026 74.3732 48.5101 73.961 49.0174 73.961C49.5248 73.961 49.9322 74.3692 49.9322 74.8775V78.1631H54.7061V74.8775C54.7061 74.3732 55.1136 73.961 55.621 73.961C56.1283 73.961 56.5358 74.3692 56.5358 74.8775V78.1631H64.4696C71.0372 78.1631 76.3824 72.8085 76.3824 66.2292C76.3824 59.65 71.0372 54.2954 64.4696 54.2954H64.4616ZM73.534 33.6613C73.534 31.9324 72.1278 30.5237 70.402 30.5237H51.9816C51.5582 30.5237 51.1906 30.2316 51.0947 29.8194L47.9588 16.4408H44.6949V47.444C44.6949 47.9483 44.2875 48.3605 43.7801 48.3605H29.2467C28.7433 48.3605 28.3319 47.9523 28.3319 47.444V32.6048H25.144C21.8442 32.6048 19.1636 29.9194 19.1636 26.6138V16.4408H11.4255V31.6883C11.4255 31.9404 11.3256 32.1766 11.1419 32.3486L5.64891 37.5992C5.07764 38.1275 4.75405 38.8558 4.75405 39.6122V49.7452C4.75405 51.2379 5.9685 52.4585 7.46259 52.4585H70.4779C72.1638 52.4585 73.534 51.0858 73.534 49.397V33.6573V33.6613ZM80.2934 36.8669C80.2934 35.5062 79.1868 34.3976 77.8245 34.3976C76.4623 34.3976 75.3597 35.5062 75.3597 36.8669V48.2444C75.3597 49.6051 76.4663 50.7136 77.8245 50.7136C79.1828 50.7136 80.2934 49.6051 80.2934 48.2444V36.8669ZM86.9768 44.9588L82.123 40.2285V48.2444C82.123 48.6806 82.0391 49.0928 81.9193 49.489L86.7811 53.8072V46.1434C86.7811 45.7272 86.861 45.335 86.9808 44.9588H86.9768ZM92.9771 56.2404V46.1434C92.9771 44.9388 91.9984 43.9583 90.7919 43.9583C89.5855 43.9583 88.6067 44.9388 88.6067 46.1434V56.2404C88.6067 57.4489 89.5855 58.4294 90.7919 58.4294C91.9984 58.4294 92.9771 57.4489 92.9771 56.2404ZM103.851 70.2272L100.915 60.6345C99.0334 54.4995 98.586 47.9083 99.6166 41.5732L101.171 32.0125H98.2824L92.5177 42.5296C93.864 43.1779 94.8028 44.5466 94.8028 46.1394V56.2363C94.8028 57.8451 93.852 59.2218 92.4858 59.8661L98.0546 70.2232H103.851V70.2272Z" fill="#231F20"/>
</svg>