<svg xmlns="http://www.w3.org/2000/svg" width="113" height="92" viewBox="0 0 113 92" fill="none">
  <path d="M8.73438 78.6054C8.73438 81.8161 11.3478 84.4264 14.5554 84.4264C17.7629 84.4264 20.3795 81.813 20.3795 78.6054C20.3795 75.3979 17.7661 72.7812 14.5554 72.7812C11.3447 72.7812 8.73438 75.3947 8.73438 78.6054ZM10.0364 78.6054C10.0364 76.1121 12.0652 74.0832 14.5554 74.0832C17.0456 74.0832 19.0744 76.1121 19.0744 78.6054C19.0744 81.0988 17.0456 83.1244 14.5554 83.1244C12.0652 83.1244 10.0364 81.0988 10.0364 78.6054Z" fill="#F96302"/>
  <path d="M26.2012 78.6054C26.2012 81.8161 28.8146 84.4264 32.0222 84.4264C35.2297 84.4264 37.8463 81.813 37.8463 78.6054C37.8463 75.3979 35.2329 72.7812 32.0222 72.7812C28.8115 72.7812 26.2012 75.3947 26.2012 78.6054ZM27.5032 78.6054C27.5032 76.1121 29.532 74.0832 32.0222 74.0832C34.5124 74.0832 36.5412 76.1121 36.5412 78.6054C36.5412 81.0988 34.5124 83.1244 32.0222 83.1244C29.532 83.1244 27.5032 81.0988 27.5032 78.6054Z" fill="#F96302"/>
  <path d="M42.6995 78.6054C42.6995 81.8161 45.3129 84.4264 48.5205 84.4264C51.728 84.4264 54.3446 81.813 54.3446 78.6054C54.3446 75.3979 51.7312 72.7812 48.5205 72.7812C45.3098 72.7812 42.6995 75.3947 42.6995 78.6054ZM44.0014 78.6054C44.0014 76.1121 46.0303 74.0832 48.5205 74.0832C51.0107 74.0832 53.0395 76.1121 53.0395 78.6054C53.0395 81.0988 51.0107 83.1244 48.5205 83.1244C46.0303 83.1244 44.0014 81.0988 44.0014 78.6054Z" fill="#F96302"/>
  <path d="M60.168 78.6054C60.168 81.8161 62.7814 84.4264 65.989 84.4264C69.1965 84.4264 71.8131 81.813 71.8131 78.6054C71.8131 75.3979 69.1997 72.7812 65.989 72.7812C62.7783 72.7812 60.168 75.3947 60.168 78.6054ZM61.47 78.6054C61.47 76.1121 63.4988 74.0832 65.989 74.0832C68.4792 74.0832 70.508 76.1121 70.508 78.6054C70.508 81.0988 68.4792 83.1244 65.989 83.1244C63.4988 83.1244 61.47 81.0988 61.47 78.6054Z" fill="#F96302"/>
  <path d="M67.9641 90.9765H12.1422C5.56899 90.9765 0.22 85.6296 0.22 79.0565C0.22 72.4812 5.56902 67.1343 12.1422 67.1343H67.9663C74.5394 67.1343 79.8863 72.4811 79.8863 79.0543C79.8863 85.6296 74.5372 90.9765 67.9641 90.9765ZM12.1422 68.9016C9.44128 68.9016 6.89566 69.9603 4.97193 71.884C3.04827 73.8077 1.98727 76.3555 1.98727 79.0543C1.98727 84.6542 6.54218 89.2114 12.1422 89.2114H67.9663C73.5641 89.2114 78.119 84.6542 78.119 79.0565C78.119 73.4566 73.564 68.9016 67.9663 68.9016H12.1422Z" fill="black" stroke="white" stroke-width="0.44"/>
  <path d="M77.383 83.8625L77.382 83.861C77.2179 83.614 77.1896 83.302 77.308 83.0282L77.3083 83.0275C77.8476 81.7683 78.1207 80.4321 78.1207 79.0561C78.1207 77.6822 77.8476 76.3461 77.3083 75.0848L77.3083 75.0848L77.3078 75.0835C77.1899 74.8127 77.2176 74.5005 77.3824 74.2506L77.3826 74.2503C77.5451 74.003 77.8226 73.8528 78.1192 73.8528H91.7358C92.223 73.8528 92.6173 74.2482 92.6173 74.7364L92.6173 83.3757L92.6173 83.3765C92.619 83.8654 92.224 84.2593 91.7358 84.2593H78.1192C77.8219 84.2593 77.545 84.1108 77.383 83.8625L77.383 83.8625ZM79.4611 82.2132L79.3837 82.4921H79.6731H90.6322H90.8522V82.2721V75.8401V75.6201H90.6322H79.6731H79.3839L79.4611 75.8988C79.7449 76.9235 79.8879 77.9787 79.8879 79.0561C79.8879 80.1357 79.7449 81.1908 79.4611 82.2132Z" fill="black" stroke="white" stroke-width="0.44"/>
  <path d="M106.702 43.6112L106.703 43.6128C106.869 43.8475 106.91 44.1493 106.811 44.4189L106.811 44.4195C103.244 54.2546 101.916 63.7027 102.983 71.7435L102.983 71.7435C104.018 79.526 107.249 85.6519 112.354 89.4369L112.361 89.4419L112.368 89.4464C112.615 89.602 112.779 89.8773 112.779 90.1916C112.779 90.6793 112.383 91.0752 111.896 91.0752H111.896H111.896H111.896H111.896H111.896H111.895H111.895H111.895H111.895H111.895H111.895H111.895H111.895H111.895H111.895H111.895H111.895H111.895H111.895H111.895H111.895H111.895H111.895H111.895H111.895H111.895H111.895H111.895H111.895H111.895H111.895H111.894H111.894H111.894H111.894H111.894H111.894H111.894H111.894H111.894H111.894H111.894H111.894H111.894H111.894H111.894H111.894H111.894H111.894H111.894H111.894H111.894H111.894H111.894H111.894H111.894H111.894H111.894H111.894H111.893H111.893H111.893H111.893H111.893H111.893H111.893H111.893H111.893H111.893H111.893H111.893H111.893H111.893H111.893H111.893H111.893H111.893H111.893H111.893H111.893H111.893H111.893H111.893H111.893H111.893H111.893H111.893H111.893H111.892H111.892H111.892H111.892H111.892H111.892H111.892H111.892H111.892H111.892H111.892H111.892H111.892H111.892H111.892H111.892H111.892H111.892H111.892H111.892H111.892H111.892H111.892H111.892H111.892H111.892H111.892H111.892H111.892H111.892H111.891H111.891H111.891H111.891H111.891H111.891H111.891H97.1887C93.6947 91.0752 90.8509 88.2315 90.8509 84.7352V49.5756C90.8509 46.0794 93.6947 43.2356 97.1887 43.2356H105.98C106.269 43.2356 106.539 43.3754 106.702 43.6112ZM93.9608 46.3451L93.9606 46.3453C93.0942 47.2117 92.6159 48.3601 92.6159 49.5756V49.5756L92.6181 84.7353C92.6181 87.2559 94.6677 89.308 97.1887 89.308H108.885H109.426L109.038 88.9303C104.858 84.8617 102.174 79.0705 101.232 71.9748L101.232 71.9747C100.182 64.0768 101.354 54.883 104.63 45.294L104.73 45.0029H104.422H97.1887C95.9753 45.0029 94.8271 45.4812 93.9608 46.3451Z" fill="black" stroke="white" stroke-width="0.44"/>
  <path d="M92.6149 55.4943V55.4943L92.6171 74.7439C92.6171 74.9762 92.5237 75.2008 92.357 75.3675C92.1903 75.5342 91.9658 75.6275 91.7334 75.6275H84.5333C84.0456 75.6275 83.6497 75.2316 83.6497 74.7439V62.6922C83.6497 58.2359 87.277 54.6106 91.7334 54.6106C92.2206 54.6106 92.6149 55.006 92.6149 55.4943ZM85.417 73.6402V73.8602H85.637H90.6298H90.8498V73.6402V56.6972V56.4331L90.5901 56.4808C87.6514 57.0206 85.417 59.5996 85.417 62.6922V73.6402Z" fill="black" stroke="white" stroke-width="0.44"/>
  <path d="M16.9931 66.9274V67.1474H17.2131H62.897H63.117V66.9274V60.3166V60.0966H62.897H17.2131H16.9931V60.3166V66.9274ZM64.0006 68.9147H16.1095C15.6218 68.9147 15.2259 68.5188 15.2259 68.0311V59.213C15.2259 58.7253 15.6218 58.3294 16.1095 58.3294H64.0006C64.4883 58.3294 64.8843 58.7253 64.8843 59.213V68.0311C64.8843 68.5188 64.4883 68.9147 64.0006 68.9147Z" fill="black" stroke="white" stroke-width="0.44"/>
  <path d="M38.9554 39.1063H39.1754V38.8863V26.4042C39.1754 24.7864 40.4917 23.47 42.1096 23.47H66.7184C66.8827 23.47 67.0764 23.4703 67.3402 23.5785C67.6083 23.6884 67.9638 23.9167 68.4234 24.4011C69.3466 25.3739 70.6588 27.3463 72.5026 31.3392C73.3061 33.0793 74.1341 35.0613 74.7608 36.7811C75.0742 37.6412 75.3363 38.4331 75.5198 39.0951C75.705 39.7634 75.8043 40.2795 75.8043 40.5969V57.1647C75.8043 58.7825 74.4879 60.0989 72.8701 60.0989H7.24794C5.63011 60.0989 4.31375 58.7825 4.31375 57.1647V42.0405C4.31375 40.4227 5.63011 39.1063 7.24794 39.1063H38.9554ZM74.037 40.5969V40.5962C74.0366 40.4922 74.0143 40.35 73.979 40.1853C73.9428 40.0165 73.8898 39.8099 73.8216 39.5709C73.6851 39.0928 73.4855 38.4775 73.2311 37.7614C72.7221 36.329 71.9914 34.4869 71.1016 32.5225L71.1016 32.5224C70.0226 30.1421 69.0905 28.4189 68.3551 27.25C67.9875 26.6657 67.6675 26.2173 67.4013 25.8937C67.1411 25.5774 66.9155 25.359 66.7346 25.2614L66.6857 25.2351H66.6301H42.1096C41.4643 25.2351 40.9426 25.7602 40.9426 26.4042V39.9899C40.9426 40.4776 40.5467 40.8736 40.059 40.8736H7.24794C6.60331 40.8736 6.08102 41.3959 6.08102 42.0405V57.1647C6.08102 57.8068 6.60298 58.3316 7.24794 58.3316H72.8701C73.5151 58.3316 74.037 57.8068 74.037 57.1647V40.5969Z" fill="black" stroke="white" stroke-width="0.44"/>
  <path d="M52.2381 45.9823L52.238 45.9822L46.0865 39.6387C46.0865 39.6386 46.0864 39.6386 46.0864 39.6386C45.9273 39.4741 45.8372 39.253 45.8372 39.0235V30.6271C45.8372 30.1394 46.2331 29.7434 46.7208 29.7434H64.2156C64.5457 29.7434 64.8499 29.9288 65.0022 30.2244C65.0022 30.2244 65.0023 30.2245 65.0023 30.2245L68.7827 37.5934C68.7828 37.5935 68.7828 37.5936 68.7829 37.5937C68.847 37.7202 68.8803 37.8583 68.8803 37.9971V45.3672C68.8803 45.8549 68.4844 46.2509 67.9967 46.2509H52.8725C52.634 46.2509 52.4041 46.1536 52.2381 45.9823ZM53.1825 44.4167L53.2473 44.4836H53.3404H66.8931H67.1131V44.2636V38.2642V38.2111L67.0888 38.1638L63.736 31.6303L63.6746 31.5107H63.5402H47.8245H47.6045V31.7307V38.5755V38.6646L47.6665 38.7286L53.1825 44.4167Z" fill="black" stroke="white" stroke-width="0.44"/>
  <path fill-rule="evenodd" clip-rule="evenodd" d="M13.8478 54.4146C13.6889 54.4146 13.5299 54.3815 13.3776 54.3109C12.8258 54.0504 12.5897 53.3927 12.8501 52.8408L16.9512 44.1265C17.2095 43.5747 17.8672 43.3385 18.4191 43.5968C18.9709 43.8572 19.207 44.515 18.9488 45.0646L14.8455 53.7811C14.6579 54.1806 14.2606 54.4146 13.8478 54.4146Z" fill="#F96302"/>
  <path fill-rule="evenodd" clip-rule="evenodd" d="M20.6374 54.4146C20.4807 54.4146 20.3196 54.3815 20.1695 54.3109C19.6177 54.0504 19.3815 53.3927 19.6398 52.8408L23.7409 44.1265C24.0013 43.5747 24.6591 43.3385 25.2109 43.5968C25.7605 43.8572 25.9989 44.515 25.7384 45.0646L21.6373 53.7811C21.4497 54.1806 21.0524 54.4146 20.6374 54.4146Z" fill="#F96302"/>
  <path fill-rule="evenodd" clip-rule="evenodd" d="M27.4298 54.4146C27.2709 54.4146 27.112 54.3815 26.9597 54.3109C26.4079 54.0504 26.1717 53.3927 26.4321 52.8408L30.5332 44.1265C30.7937 43.5747 31.4493 43.3385 32.0011 43.5968C32.5529 43.8572 32.7891 44.515 32.5308 45.0646L28.4275 53.7811C28.2399 54.1806 27.8426 54.4146 27.4298 54.4146Z" fill="#F96302"/>
  <path d="M51.2726 50.6023H46.5314C46.0431 50.6023 45.6477 50.208 45.6477 49.7208C45.6477 49.2312 46.0434 48.8372 46.5314 48.8372H51.2726C51.7628 48.8372 52.1562 49.2312 52.1562 49.7186C52.1562 50.2085 51.7625 50.6023 51.2726 50.6023Z" fill="black" stroke="white" stroke-width="0.44"/>
  <path d="M33.1976 9.83577V10.0075V39.9778C33.1976 40.4655 33.5935 40.8615 34.0812 40.8615H40.0541C40.5418 40.8615 40.9377 40.4655 40.9377 39.9778V6.34346C40.9377 5.96899 40.8571 5.44913 40.5104 4.94512C40.1654 4.44348 39.5415 3.93534 38.4145 3.60802L38.4144 3.60799L26.8903 0.25515L26.8902 0.255124C26.6239 0.177526 26.3357 0.230209 26.1125 0.396488C25.8895 0.564871 25.7591 0.826505 25.7591 1.1034V7.28596C25.7591 7.69024 26.0345 8.04389 26.429 8.14306L33.1976 9.83577ZM33.1976 9.83577L33.0309 9.7941L26.4292 8.14311L33.1976 9.83577ZM34.9648 38.8742V39.0942H35.1848H38.9504H39.1704V38.8742V6.34125C39.1704 6.01692 38.9414 5.78938 38.7116 5.64103C38.475 5.48822 38.1786 5.37958 37.9217 5.30455L37.9215 5.30449L27.8078 2.3622L27.5263 2.28032V2.57344V6.42292V6.59469L27.693 6.63635L34.2967 8.28728C34.2967 8.28729 34.2968 8.28731 34.2969 8.28733C34.6892 8.38638 34.9648 8.73998 34.9648 9.14448V38.8742Z" fill="black" stroke="white" stroke-width="0.44"/>
</svg>