<svg xmlns="http://www.w3.org/2000/svg" width="97" height="80" viewBox="0 0 97 80" fill="none">
  <path d="M0.00405658 43.96V61.175C0.00405658 62.5544 1.1277 63.6748 2.51097 63.6748H5.65069C6.57557 72.8243 14.3437 79.996 23.7629 79.996C33.1821 79.996 41.4857 72.2985 41.9238 62.6797H45.9316L55.6591 62.9265C56.2229 72.432 64.1371 80 73.8078 80C83.4785 80 92.0133 71.8576 92.0133 61.8505C92.0133 61.6645 91.989 61.4784 91.9849 61.2923C91.993 61.2438 92.0133 61.2034 92.0133 61.1508V37.4598C92.0133 36.9987 91.6401 36.6266 91.1777 36.6266H90.3542C88.1313 36.6266 86.3221 34.8225 86.3221 32.6059V32.2945L96.4957 27.9098C96.9176 27.7278 97.1123 27.2424 96.9338 26.8217C96.8649 26.6559 96.7472 26.5224 96.6012 26.4375C95.7088 25.3898 90.6828 16.8834 87.6526 11.6412C87.5025 11.3823 87.2267 11.2246 86.9265 11.2246H48.1424L42.0009 2.37436C40.9665 0.885833 39.2668 0 37.4536 0H9.86132C7.48828 0 5.56145 1.92537 5.56145 4.28759C5.56145 6.64981 7.49233 8.57518 9.86132 8.57518H26.6714L38.0864 27.3476H32.9184L24.4687 13.87C24.3146 13.6273 24.0469 13.4776 23.7588 13.4776H10.5955C8.19005 13.4776 6.23482 15.5769 6.23482 18.1616V36.2868H6.08879C3.05859 36.2868 0 38.6611 0 43.968L0.00405658 43.96ZM82.6631 21.2681C82.4278 20.8757 81.9127 20.7463 81.5151 20.9849C81.1216 21.2236 80.9918 21.7373 81.2312 22.1296L86.2937 30.4864L80.6186 32.9336L73.5644 21.2681C73.3291 20.8717 72.814 20.7463 72.4164 20.9849C72.0229 21.2236 71.8931 21.7332 72.1325 22.1296L79.0691 33.601L73.5117 35.9956L64.7213 21.2721C64.4819 20.8757 63.9708 20.7463 63.5733 20.9809C63.1757 21.2155 63.0459 21.7292 63.2812 22.1256L71.958 36.663L66.5142 39.009L56.1296 21.2802C55.8984 20.8838 55.3832 20.7463 54.9857 20.9809C54.5882 21.2114 54.4543 21.7251 54.6855 22.1215L64.9687 39.6764L59.1233 42.1964L46.7956 21.2802C46.5604 20.8798 46.0492 20.7503 45.6517 20.9849C45.2542 21.2195 45.1203 21.7292 45.3556 22.1256L57.5778 42.8678L54.3569 44.2552C52.5356 45.0399 50.3816 44.3564 49.3553 42.6656L27.86 7.30509C27.7099 7.0543 27.4381 6.90464 27.146 6.90464H9.86538C8.41721 6.90464 7.23677 5.72758 7.23677 4.28355C7.23677 2.83952 8.41721 1.66245 9.86538 1.66245H37.4657C38.7313 1.66245 39.9199 2.28132 40.6379 3.31682L47.0309 12.5271C47.1851 12.7536 47.4447 12.887 47.7165 12.887H86.4559C91.348 21.3449 93.6359 25.1471 94.8447 26.8055L87.8473 29.823L82.6631 21.2721V21.2681ZM57.2817 61.8465C57.2817 52.7576 64.6969 45.3635 73.8159 45.3635C82.9349 45.3635 90.3502 52.7576 90.3502 61.8465C90.3502 70.9354 82.9349 78.3295 73.8159 78.3295C64.6969 78.3295 57.2817 70.9354 57.2817 61.8465ZM47.0634 52.4421H39.3033C39.1694 52.2196 39.0396 51.9891 38.8977 51.7747V37.1119C38.8977 36.9542 38.853 36.8005 38.7719 36.6711L33.969 29.01H39.1045L47.9315 43.5272C48.9861 45.2584 50.8643 46.2453 52.7952 46.2453C53.5456 46.2453 54.3042 46.0957 55.0263 45.7842C55.0263 45.7842 66.5872 40.8009 66.6075 40.7928L84.6954 32.9983C84.9023 35.947 87.3402 38.289 90.3461 38.2931V41.6503H85.9773C85.5148 41.6503 85.1416 42.0224 85.1416 42.4836C85.1416 42.9447 85.5148 43.3168 85.9773 43.3168H90.3461V54.2947C87.466 48.0493 81.146 43.697 73.8118 43.697C63.9749 43.697 55.9511 51.5239 55.6388 61.26L51.1361 61.1467V56.5032C51.1361 54.2664 49.3107 52.4462 47.0674 52.4462L47.0634 52.4421ZM41.9197 60.9121C41.794 58.4892 41.1977 56.1917 40.2079 54.1086H47.0634C48.3858 54.1086 49.4608 55.1805 49.4608 56.4991V61.0132H45.9438L41.9197 60.9121ZM7.23272 61.8465C7.23272 52.7576 14.648 45.3635 23.7629 45.3635C32.8778 45.3635 40.2971 52.7576 40.2971 61.8465C40.2971 70.9354 32.8819 78.3295 23.7629 78.3295C14.6439 78.3295 7.23272 70.9354 7.23272 61.8465ZM7.23272 44.7042C7.23272 44.2431 6.85952 43.871 6.39708 43.871H1.68344C1.71184 40.271 3.43179 37.9492 6.09284 37.9492H7.07451C7.53695 37.9492 7.91015 37.5771 7.91015 37.116V30.7979H12.0721V37.2292C12.0721 37.6904 12.4453 38.0625 12.9077 38.0625H29.1824C29.6448 38.0625 30.018 37.6904 30.018 37.2292C30.018 36.7681 29.6448 36.396 29.1824 36.396H21.6982V19.8402C21.6982 19.3791 21.325 19.007 20.8625 19.007H7.91015V18.1535C7.91015 16.4911 9.11493 15.1401 10.5996 15.1401H23.3005L37.2264 37.3546V49.6714C33.892 46.0107 29.1012 43.697 23.7629 43.697C13.7272 43.697 5.55739 51.8394 5.55739 61.8505C5.55739 61.9072 5.5655 61.9598 5.5655 62.0123H2.50691C2.04447 62.0123 1.67127 61.6362 1.67127 61.1791V45.5415H6.39302C6.85546 45.5415 7.22866 45.1694 7.22866 44.7083L7.23272 44.7042ZM12.9077 29.1273H7.91015V20.6735H20.0228V29.1273H12.9037H12.9077ZM20.0228 30.7938V36.392H13.7434V30.7938H20.0228Z" fill="#231F20"/>
  <path d="M66 61.502C66 65.6377 69.3654 69 73.5 69C77.6346 69 81 65.6337 81 61.502C81 57.3704 77.6346 54 73.5 54C69.3654 54 66 57.3664 66 61.502ZM67.6766 61.502C67.6766 58.2904 70.2892 55.6771 73.4959 55.6771C76.7027 55.6771 79.3152 58.2904 79.3152 61.502C79.3152 64.7137 76.7027 67.3229 73.4959 67.3229C70.2892 67.3229 67.6766 64.7137 67.6766 61.502Z" fill="#F96302"/>
  <path d="M16 61.502C16 65.6377 19.3664 69 23.498 69C27.6296 69 31 65.6337 31 61.502C31 57.3704 27.6337 54 23.498 54C19.3623 54 16 57.3664 16 61.502ZM17.6771 61.502C17.6771 58.2904 20.2904 55.6771 23.498 55.6771C26.7056 55.6771 29.3189 58.2904 29.3189 61.502C29.3189 64.7137 26.7056 67.3229 23.498 67.3229C20.2904 67.3229 17.6771 64.7137 17.6771 61.502Z" fill="#F96302"/>
  <path d="M20 31H14V36H20V31Z" fill="#F96302"/>
</svg>