<svg xmlns="http://www.w3.org/2000/svg" width="97" height="87" viewBox="0 0 97 87" fill="none">
<path d="M73.4131 70.1953H34.9281C31.9199 70.1953 29.4766 72.6466 29.4766 75.6549C29.4766 78.6631 31.9243 81.1145 34.9281 81.1145C37.3277 81.1145 39.412 79.549 40.117 77.3037H68.2243C68.9292 79.549 71.0135 81.1145 73.4131 81.1145C76.4213 81.1145 78.8647 78.6631 78.8647 75.6549C78.8647 72.6466 76.4169 70.1953 73.4131 70.1953ZM34.9281 71.8573H73.4131C75.5061 71.8573 77.2095 73.5632 77.2095 75.6593C77.2095 77.7554 75.5061 79.4613 73.4131 79.4613C71.5784 79.4613 70.0108 78.1457 69.6868 76.3302C69.6167 75.9356 69.2708 75.6461 68.8723 75.6461H39.4689C39.0661 75.6461 38.7245 75.9356 38.6545 76.3302C38.3304 78.1457 36.7628 79.4613 34.9281 79.4613C32.8351 79.4613 31.1317 77.7554 31.1317 75.6593C31.1317 73.5632 32.8351 71.8573 34.9281 71.8573Z" fill="#F96302"/>
<path d="M43.9102 39.4804V54.5655C43.9102 55.026 44.2824 55.3943 44.7377 55.3943H55.1242C55.5839 55.3943 55.9518 55.0216 55.9518 54.5655V40.2259C59.7832 39.8049 62.7826 36.5862 62.7826 32.6395V26.9694C62.7826 26.509 62.4104 26.1406 61.955 26.1406H46.7607C46.3535 26.1406 46.0076 26.4344 45.9419 26.8379L43.9233 39.3489C43.9233 39.3489 43.9277 39.3883 43.9145 39.4804H43.9102ZM55.9518 27.7982H61.1275V32.6395C61.1275 35.6741 58.8724 38.1868 55.9518 38.5946V27.7982ZM54.2966 38.6516H45.7142L47.4657 27.7982H54.2966V38.6516ZM45.5653 40.3092H54.2922V43.449H50.7542C50.2944 43.449 49.9266 43.8218 49.9266 44.2778C49.9266 44.7339 50.2988 45.1066 50.7542 45.1066H54.2922V53.7367H45.5653V40.3136V40.3092Z" fill="#231F20"/>
<path d="M81.642 53.7344H86.0339C86.4893 53.7344 86.8615 54.1071 86.8615 54.5632C86.8615 55.0192 86.4893 55.392 86.0339 55.392H81.642C81.1823 55.392 80.8145 55.0192 80.8145 54.5632C80.8145 54.1071 81.1866 53.7344 81.642 53.7344Z" fill="#F96302"/>
<path d="M81.642 48.9141H86.0339C86.4893 48.9141 86.8615 49.2868 86.8615 49.7429C86.8615 50.1989 86.4893 50.5717 86.0339 50.5717H81.642C81.1823 50.5717 80.8145 50.1989 80.8145 49.7429C80.8145 49.2868 81.1866 48.9141 81.642 48.9141Z" fill="#F96302"/>
<path d="M81.642 44.0859H86.0339C86.4893 44.0859 86.8615 44.4587 86.8615 44.9147C86.8615 45.3708 86.4893 45.7435 86.0339 45.7435H81.642C81.1823 45.7435 80.8145 45.3708 80.8145 44.9147C80.8145 44.4587 81.1866 44.0859 81.642 44.0859Z" fill="#F96302"/>
<path d="M0.0262724 42.0497C0.0218936 42.1374 0 42.2252 0 42.3129C0 42.918 0.122605 43.4881 0.31965 44.0275L2.97318 61.9147C3.00821 62.1471 3.13958 62.3533 3.33224 62.4848L5.42967 63.8881C7.06733 64.6248 8.7838 64.9888 10.4828 64.9888C13.075 64.9888 15.6103 64.1468 17.7209 62.5287C19.2666 61.3403 20.5014 59.766 21.2852 57.9812L25.2699 48.8907C25.3925 48.6056 25.3487 48.2811 25.156 48.0399C24.9633 47.7988 24.6525 47.6847 24.3503 47.7461L17.6639 49.0617L9.5895 44.3914C9.87412 43.76 10.0449 43.0627 10.0449 42.326C10.0449 41.1157 9.59826 40.0194 8.88452 39.1511L22.8265 13.8529L38.4412 38.66H36.8342C34.474 38.66 32.5517 40.5851 32.5517 42.9487V56.385C32.5517 58.7135 34.4434 60.6079 36.7685 60.6079H38.2748V64.9624H34.9031C29.0444 64.9624 24.2803 69.7336 24.2803 75.601C24.2803 81.4684 29.0444 86.2395 34.9031 86.2395H73.6202C79.479 86.2395 84.2431 81.4684 84.2431 75.601C84.2431 69.7336 79.479 64.9624 73.6202 64.9624H70.2485V60.6079H92.046C94.1873 60.6079 95.9475 58.8626 95.965 56.7139L96.0351 48.4785C96.0482 47.1103 95.5578 45.7903 94.6558 44.7598L90.8944 40.4711C89.8829 39.3178 88.4204 38.6556 86.8878 38.6556H80.4992V27.3418C80.4992 26.8813 80.127 26.513 79.6716 26.513H77.8413V20.5184C77.8413 19.137 78.4631 17.8478 79.5403 16.9883L80.2978 16.3831L81.2305 15.642C81.5895 15.357 81.6465 14.8352 81.3618 14.4756C81.0772 14.116 80.5562 14.059 80.1971 14.344L78.5069 15.6903C77.0269 16.8655 76.1818 18.6284 76.1818 20.5184V26.513H74.3514C73.8917 26.513 73.5239 26.8857 73.5239 27.3418V38.6556H69.5129L67.1615 24.7501C66.8068 22.6671 65.0203 21.1542 62.9097 21.1542H52.9524C53.4297 20.4965 53.7231 19.6896 53.7231 18.8169C53.7231 16.6155 51.9322 14.822 49.734 14.822H46.9623C46.5069 14.822 46.1347 15.1947 46.1347 15.6508V21.1542H45.4253C43.3148 21.1542 41.5238 22.6671 41.1735 24.7501L40.6963 27.5742L28.6415 8.43714C28.9831 7.68288 29.1889 6.85408 29.1889 5.97265C29.1889 2.67936 26.5134 0 23.225 0C21.0706 0 19.1965 1.16208 18.1456 2.88108C18.1237 2.91616 18.0887 2.94247 18.0712 2.98194L17.9398 3.26259C17.8435 3.44677 17.7515 3.63095 17.6727 3.82828L0.897647 39.4537C0.486043 40.0457 0.205802 40.7342 0.0831968 41.4753C0.0218941 41.6156 -0.0175149 41.7691 0.00875773 41.927L0.0262724 42.0454V42.0497ZM52.0679 18.8038C52.0679 20.093 51.0214 21.1411 49.734 21.1411H47.7898V16.4664H49.734C51.0214 16.4664 52.0679 17.5145 52.0679 18.8038ZM78.8397 38.6468H75.179V28.1618H78.8397V38.6468ZM39.1024 66.6069H73.6202C78.5638 66.6069 82.5879 70.6369 82.5879 75.5878C82.5879 80.5387 78.5638 84.5687 73.6202 84.5687H67.6913V82.1919C67.6913 81.7315 67.3191 81.3631 66.8638 81.3631C66.4084 81.3631 66.0362 81.7359 66.0362 82.1919V84.5687H62.6514V82.1919C62.6514 81.7315 62.2792 81.3631 61.8238 81.3631C61.3684 81.3631 60.9962 81.7359 60.9962 82.1919V84.5687H57.6114V82.1919C57.6114 81.7315 57.2392 81.3631 56.7838 81.3631C56.3284 81.3631 55.9562 81.7359 55.9562 82.1919V84.5687H52.5715V82.1919C52.5715 81.7315 52.1993 81.3631 51.7439 81.3631C51.2885 81.3631 50.9163 81.7359 50.9163 82.1919V84.5687H47.5315V82.1919C47.5315 81.7315 47.1593 81.3631 46.7039 81.3631C46.2485 81.3631 45.8763 81.7359 45.8763 82.1919V84.5687H42.4915V82.1919C42.4915 81.7315 42.1194 81.3631 41.664 81.3631C41.2086 81.3631 40.8364 81.7359 40.8364 82.1919V84.5687H34.9075C29.9639 84.5687 25.9398 80.5387 25.9398 75.5878C25.9398 70.6369 29.9639 66.6069 34.9075 66.6069H39.1068H39.1024ZM39.93 64.9493V60.5948H68.5934V64.9493H39.93ZM39.5184 40.3044C39.9212 40.3044 40.2671 40.015 40.3328 39.616L42.8024 25.0176C43.017 23.7327 44.1204 22.8031 45.4209 22.8031H62.9097C64.2102 22.8031 65.3137 23.7371 65.5282 25.0176L67.9978 39.616C68.0679 40.015 68.4095 40.3044 68.8123 40.3044H86.8835C87.9431 40.3044 88.9502 40.7605 89.6465 41.5586L93.4078 45.8473C94.0384 46.5709 94.3843 47.4962 94.3755 48.4565L94.3055 56.6919C94.2967 57.933 93.2808 58.9416 92.0417 58.9416H36.7641C35.3498 58.9416 34.2025 57.7926 34.2025 56.3762V42.9399C34.2025 41.4884 35.3804 40.3088 36.8254 40.3088H39.5096L39.5184 40.3044ZM23.7373 12.1821L23.9124 11.862C25.3837 11.6866 26.6886 10.9893 27.6344 9.94126L40.2803 30.0167L39.1549 36.6779L23.7373 12.1865V12.1821ZM18.9119 5.9595C18.9119 3.58271 20.8429 1.64445 23.2206 1.64445C25.5983 1.64445 27.5293 3.57833 27.5293 5.9595C27.5293 8.34066 25.5983 10.2745 23.2206 10.2745C20.8429 10.2745 18.9119 8.34066 18.9119 5.9595ZM7.60154 38.0241C6.84401 37.5637 5.96388 37.283 5.01807 37.283C4.54078 37.283 4.08539 37.3707 3.64751 37.4979L17.5939 7.86268C18.2682 9.85794 19.9497 11.3928 22.0471 11.8137L7.60154 38.0241ZM2.36891 46.5665C3.13958 47.0489 4.0416 47.3427 5.01807 47.3427C6.4543 47.3427 7.74166 46.7288 8.65682 45.7596L17.0991 50.6447C17.2742 50.7456 17.4713 50.7807 17.6727 50.7412L23.1111 49.6712L19.7614 57.3103C19.0914 58.8451 18.0318 60.1913 16.705 61.2131C13.6968 63.5241 9.68145 63.9977 6.22223 62.4453L4.55392 61.3183L2.36891 46.5753V46.5665ZM1.65517 42.3129C1.65517 40.4535 3.16585 38.945 5.01807 38.945C6.87028 38.945 8.38096 40.4579 8.38096 42.3129C8.38096 44.1678 6.87028 45.6807 5.01807 45.6807C3.16585 45.6807 1.65517 44.1678 1.65517 42.3129Z" fill="#231F20"/>
</svg>