<svg xmlns="http://www.w3.org/2000/svg" width="106" height="85" viewBox="0 0 106 85" fill="none">
  <path d="M82.6185 32.8719V16.3806H83.232C85.1278 16.3806 86.67 14.8384 86.67 12.9426V11.6858C86.67 9.79 85.1278 8.2478 83.232 8.2478H49.6955C50.4709 7.37019 50.9565 6.23271 50.9565 4.97168C50.9565 2.23236 48.7284 0 45.9849 0H40.4423C39.9396 0 39.5306 0.408982 39.5306 0.911688V8.2478H35.854C33.9582 8.2478 32.416 9.79 32.416 11.6858V12.9426C32.416 14.8384 33.9582 16.3806 35.854 16.3806H37.0426V22.9584C37.0426 23.0819 37.0682 23.2054 37.1151 23.3162L44.4086 40.3358V49.2482C40.2804 42.1507 32.6077 37.3536 23.8189 37.3536C19.5544 37.3536 15.5626 38.4954 12.0948 40.4636L11.0851 39.4539C9.00185 37.3664 5.3338 37.3707 3.25055 39.4539L1.69557 41.0089C0.651814 42.0527 0.0766841 43.4415 0.0766841 44.9241C0.0766841 46.4066 0.651814 47.7997 1.69557 48.8392L2.81601 49.9597C1.02245 53.3039 0 57.1211 0 61.1768C0 74.3111 10.6846 84.9958 23.8189 84.9958C34.6484 84.9958 43.7994 77.7235 46.6793 67.8143H47.1607L47.2501 68.219C48.0383 71.7464 51.1184 74.2131 54.7311 74.2131H64.1291V76.4497C64.1291 76.9524 64.5381 77.3614 65.0408 77.3614H75.9726C77.8343 81.8389 82.2521 85 87.3942 85C93.6738 85 98.867 80.2882 99.6466 74.2174H99.7659C101.359 74.2174 102.85 73.5954 103.975 72.4664C105.1 71.3375 105.709 69.8379 105.696 68.2445L105.607 55.3914V38.3165C105.607 35.3173 103.166 32.8719 100.162 32.8719H82.61H82.6185ZM103.792 54.4883H82.6185V34.6953H100.171C102.169 34.6953 103.792 36.3184 103.792 38.3165V41.3455H98.7392C98.2365 41.3455 97.8275 41.7545 97.8275 42.2572C97.8275 42.7599 98.2365 43.1689 98.7392 43.1689H103.792V47.2289H98.7392C98.2365 47.2289 97.8275 47.6378 97.8275 48.1405C97.8275 48.6432 98.2365 49.0522 98.7392 49.0522H103.792V54.4925V54.4883ZM76.8587 72.6326C76.8587 66.8174 81.5875 62.0885 87.4027 62.0885C93.2179 62.0885 97.9468 66.8174 97.9468 72.6326C97.9468 78.4478 93.2179 83.1766 87.4027 83.1766C81.5875 83.1766 76.8587 78.4478 76.8587 72.6326ZM65.961 70.3406H75.2611C75.1205 71.0861 75.0396 71.8487 75.0396 72.6326C75.0396 73.6337 75.1716 74.6051 75.3974 75.538H65.961V70.3406ZM4.18354 51.3272L18.4553 65.5989C18.9878 66.1315 19.6311 66.549 20.3639 66.8301C21.4289 67.4862 22.609 67.8185 23.8743 67.8185H44.7962C41.9717 76.7139 33.643 83.1766 23.8274 83.1766C11.6986 83.1766 1.82764 73.3099 1.82764 61.1768C1.82764 57.6323 2.6882 54.2923 4.18354 51.3229V51.3272ZM25.1012 56.0433C25.2716 56.2137 25.5017 56.3117 25.7445 56.3117H55.4255C57.4406 56.3117 59.1404 58.037 59.1404 60.0777V62.2802C59.1404 64.3294 57.4747 65.9951 55.4255 65.9951H23.87C22.9243 65.9951 22.0424 65.7395 21.2543 65.2368C21.1989 65.2027 21.1392 65.1729 21.0796 65.1516C20.5598 64.9599 20.1083 64.6787 19.7419 64.3124L2.99068 47.5569C2.292 46.8582 1.90858 45.9252 1.90858 44.9283C1.90858 43.9314 2.292 42.9984 2.99068 42.2998L4.54566 40.7448C5.93875 39.3474 8.40542 39.3432 9.80277 40.7448L25.1012 56.0433ZM44.7749 54.4883H26.1194L13.4282 41.7971C16.5254 40.1313 20.0614 39.177 23.8189 39.177C33.6174 39.177 41.9291 45.6185 44.7707 54.484L44.7749 54.4883ZM39.3389 23.87H46.6281L51.8938 39.2367H45.9252L39.3389 23.87ZM53.8194 39.2409L48.5538 23.8743H67.205C68.9048 23.8743 70.2894 25.2589 70.2894 26.9587V35.722C70.2894 37.6646 68.7089 39.2409 66.7705 39.2409H53.8194ZM65.6245 41.06V48.3706H54.0793V41.06H65.6245ZM38.866 16.3806H80.7951V54.4883H46.6707C46.5429 54.0452 46.3896 53.6107 46.2319 53.1804V41.06H52.2559V49.2823C52.2559 49.785 52.6649 50.194 53.1676 50.194H66.5362C67.0389 50.194 67.4479 49.785 67.4479 49.2823V40.9919C70.0679 40.6553 72.1085 38.4315 72.1085 35.7177V26.9544C72.1085 24.2492 69.906 22.0467 67.2008 22.0467H38.866V16.3763V16.3806ZM49.1374 4.96742C49.1374 6.70559 47.723 8.11573 45.9891 8.11573H41.3582V1.81912H45.9891C47.7273 1.81912 49.1374 3.23351 49.1374 4.96742ZM35.8583 14.5572C34.9679 14.5572 34.2437 13.8329 34.2437 12.9426V11.6858C34.2437 10.7954 34.9679 10.0712 35.8583 10.0712H83.2362C84.1266 10.0712 84.8509 10.7954 84.8509 11.6858V12.9426C84.8509 13.8329 84.1266 14.5572 83.2362 14.5572H35.8583ZM103.8 56.3117L103.886 68.2573C103.894 69.3607 103.468 70.396 102.693 71.1798C101.913 71.9637 100.878 72.394 99.7574 72.394C99.6253 65.6884 94.1424 60.2694 87.4027 60.2694C82.0306 60.2694 77.4551 63.7202 75.7553 68.5215H65.0451C64.5424 68.5215 64.1334 68.9304 64.1334 69.4331V72.3983H54.7354C51.979 72.3983 49.6359 70.5195 49.0309 67.8228H55.4212C58.4758 67.8228 60.9595 65.3391 60.9595 62.2845V60.082C60.9595 58.625 60.3929 57.3085 59.4855 56.3159H103.796L103.8 56.3117Z" fill="#231F20"/>
  <path d="M82.8223 72.6273C82.8223 75.2345 84.9439 77.3561 87.5511 77.3561C90.1584 77.3561 92.28 75.2345 92.28 72.6273C92.28 70.02 90.1584 67.8984 87.5511 67.8984C84.9439 67.8984 82.8223 70.02 82.8223 72.6273ZM84.6456 72.6273C84.6456 71.0254 85.9493 69.7218 87.5511 69.7218C89.153 69.7218 90.4566 71.0254 90.4566 72.6273C90.4566 74.2291 89.153 75.5328 87.5511 75.5328C85.9493 75.5328 84.6456 74.2291 84.6456 72.6273Z" fill="#F96302"/>
  <path d="M65.7737 41.0547H54.2285V48.3652H65.7737V41.0547Z" fill="#F96302"/>
</svg>