<svg xmlns="http://www.w3.org/2000/svg" width="65" height="67" viewBox="0 0 65 67" fill="none">
<path fill-rule="evenodd" clip-rule="evenodd" d="M32.2995 66.9636C32.297 66.9636 32.2947 66.9636 32.2924 66.9636C32.0398 66.9609 31.8112 66.813 31.7054 66.5835L15.8745 32.2322C15.8047 32.0808 15.7954 31.9085 15.8484 31.7504L21.3499 15.3533C21.4649 15.0109 21.8357 14.8267 22.178 14.9414C22.5204 15.0562 22.7051 15.4271 22.5899 15.7695L17.1713 31.9204L32.3157 64.7824L48.3222 31.9147L42.796 15.7731C42.679 15.4313 42.8612 15.0596 43.2028 14.9426C43.5446 14.8258 43.9164 15.0078 44.0335 15.3496L49.6472 31.7465C49.7033 31.9102 49.6922 32.0891 49.6165 32.2447L32.8875 66.596C32.7778 66.821 32.5494 66.9636 32.2995 66.9636Z" fill="#F96302"/>
<path fill-rule="evenodd" clip-rule="evenodd" d="M32.301 66.9638C32.3004 66.9638 32.2998 66.9638 32.2993 66.9638C32.1151 66.9633 31.9397 66.8851 31.8163 66.7487L0.716103 32.3975C0.494522 32.1527 0.490041 31.7812 0.705595 31.5312L14.8522 15.1343C14.9766 14.9903 15.1572 14.9075 15.3474 14.9075H50.3773C50.5739 14.9075 50.7601 14.996 50.8843 15.1484L64.2448 31.5406C64.4497 31.792 64.4392 32.1559 64.2202 32.3954L32.7834 66.7513C32.6595 66.8868 32.4844 66.9638 32.301 66.9638ZM2.07357 31.948L32.3035 65.338L62.8738 31.929L50.0665 16.2155H15.6469L2.07357 31.948Z" fill="#231F20"/>
<path fill-rule="evenodd" clip-rule="evenodd" d="M63.7379 32.6145H1.20095C0.839688 32.6145 0.546875 32.3218 0.546875 31.9606C0.546875 31.5993 0.839689 31.3066 1.20095 31.3066H63.7378C64.0991 31.3066 64.3917 31.5993 64.3917 31.9606C64.3917 32.3218 64.099 32.6145 63.7379 32.6145Z" fill="#231F20"/>
<path fill-rule="evenodd" clip-rule="evenodd" d="M32.4742 8.60363C32.113 8.60363 31.8203 8.31081 31.8203 7.94955V0.653925C31.8203 0.292659 32.113 0 32.4742 0C32.8355 0 33.1283 0.292659 33.1283 0.653925V7.9497C33.1283 8.31081 32.8355 8.60363 32.4742 8.60363Z" fill="#F96302"/>
<path fill-rule="evenodd" clip-rule="evenodd" d="M39.99 11.4396C39.8225 11.4396 39.6551 11.3757 39.5275 11.248C39.2721 10.9925 39.2721 10.5784 39.5275 10.3232L44.6864 5.16422C44.942 4.9088 45.3561 4.9088 45.6114 5.16422C45.8667 5.41964 45.8667 5.83375 45.6114 6.08902L40.4525 11.248C40.3247 11.3757 40.1573 11.4396 39.99 11.4396Z" fill="#F96302"/>
<path fill-rule="evenodd" clip-rule="evenodd" d="M24.9556 11.4396C24.7882 11.4396 24.6209 11.3757 24.4931 11.248L19.3341 6.08902C19.0787 5.8336 19.0787 5.41949 19.3341 5.16422C19.5894 4.9088 20.0035 4.9088 20.2591 5.16422L25.418 10.3232C25.6734 10.5786 25.6734 10.9927 25.418 11.248C25.2904 11.3757 25.1231 11.4396 24.9556 11.4396Z" fill="#F96302"/>
<path fill-rule="evenodd" clip-rule="evenodd" d="M39.4354 21.7572H25.9469C25.5856 21.7572 25.293 21.4646 25.293 21.1033C25.293 20.742 25.5856 20.4492 25.9469 20.4492H39.4354C39.7967 20.4492 40.0894 20.7419 40.0894 21.1031C40.0894 21.4644 39.7967 21.7572 39.4354 21.7572Z" fill="#F96302"/>
<path fill-rule="evenodd" clip-rule="evenodd" d="M39.4354 27.0736H25.9469C25.5856 27.0736 25.293 26.781 25.293 26.4197C25.293 26.0584 25.5856 25.7656 25.9469 25.7656H39.4354C39.7967 25.7656 40.0894 26.0584 40.0894 26.4197C40.0894 26.781 39.7967 27.0736 39.4354 27.0736Z" fill="#F96302"/>
</svg>