<svg xmlns="http://www.w3.org/2000/svg" width="15" height="14" viewBox="0 0 15 14" fill="none">
<path fill-rule="evenodd" clip-rule="evenodd" d="M0.738281 2.17213C0.738181 1.88428 0.827884 1.60288 0.996026 1.36358C1.16417 1.12429 1.40318 0.937868 1.68278 0.827949C1.96237 0.718029 2.26997 0.689557 2.56659 0.746137C2.86321 0.802718 3.1355 0.941805 3.34896 1.14578C3.5634 1.34869 3.70957 1.6077 3.76889 1.88986C3.82822 2.17203 3.79801 2.46461 3.68212 2.7304C3.56623 2.99619 3.36989 3.22319 3.11806 3.38253C2.86623 3.54186 2.57029 3.62634 2.26787 3.62522C2.06715 3.62543 1.86835 3.588 1.68283 3.51507C1.49732 3.44215 1.32872 3.33516 1.18667 3.20022C1.04463 3.06527 0.931915 2.90502 0.854978 2.72862C0.778042 2.55222 0.738388 2.36312 0.738281 2.17213ZM14.1169 8.28085C14.1293 7.51698 13.8669 6.77203 13.3731 6.1696C12.8794 5.56716 12.184 5.14345 11.4024 4.96874C10.8703 4.85986 10.3186 4.87358 9.79324 5.00876C9.26787 5.14393 8.78407 5.39665 8.38217 5.74584V5.44102C8.38217 5.39326 8.37225 5.34597 8.353 5.30186C8.33374 5.25776 8.30552 5.21771 8.26995 5.18401C8.23438 5.15031 8.19217 5.12362 8.14573 5.10549C8.0993 5.08735 8.04956 5.07812 7.99936 5.07832H6.08778C6.03766 5.07822 5.988 5.08753 5.94166 5.10571C5.89532 5.12389 5.85321 5.15059 5.81772 5.18428C5.78224 5.21797 5.75409 5.25799 5.73489 5.30204C5.71568 5.3461 5.70579 5.39332 5.70579 5.44102V12.7042C5.70579 12.9048 5.87692 13.0669 6.08778 13.0669H8.00018C8.21104 13.0669 8.38136 12.9048 8.38136 12.7042V8.60805C8.37241 8.25426 8.49485 7.90881 8.72715 7.63245C8.95945 7.35608 9.28673 7.16651 9.65142 7.09707C9.87256 7.0611 10.0993 7.07181 10.3156 7.12844C10.5319 7.18508 10.7325 7.28625 10.9032 7.4248C11.0739 7.56335 11.2105 7.73589 11.3033 7.93023C11.3962 8.12456 11.443 8.33594 11.4405 8.5494V12.7042C11.4405 12.9048 11.6117 13.0669 11.8233 13.0669H13.7349C13.785 13.067 13.8347 13.0577 13.881 13.0395C13.9274 13.0213 13.9695 12.9946 14.005 12.9609C14.0405 12.9272 14.0686 12.8872 14.0878 12.8432C14.107 12.7991 14.1169 12.7519 14.1169 12.7042V8.28085ZM3.79584 5.44179V12.705C3.79584 12.7527 3.78592 12.8 3.76667 12.8441C3.74741 12.8882 3.71919 12.9283 3.68362 12.962C3.64805 12.9957 3.60584 13.0224 3.5594 13.0405C3.51297 13.0586 3.46323 13.0679 3.41303 13.0677H1.50064C1.39947 13.0677 1.30243 13.0295 1.23082 12.9615C1.15921 12.8935 1.11887 12.8012 1.11865 12.705V5.44179C1.11865 5.24115 1.28897 5.07909 1.50064 5.07909H3.41222C3.62309 5.07909 3.79584 5.24115 3.79584 5.44179Z" fill="#979797"/>
</svg>