<svg xmlns="http://www.w3.org/2000/svg" width="149" height="30" viewBox="0 0 149 30" fill="none">
<path d="M28.2345 29.069H17.1702V27.6065H19.0736C19.6927 27.6065 19.9122 27.5183 19.9122 27.2076C19.9033 27.0082 19.8559 26.8123 19.7724 26.631L17.1604 18.7938H7.7354L5.70897 24.1539C5.26734 25.3505 4.95707 26.1482 4.95707 26.5918C4.95707 27.4777 5.44343 27.6107 6.68305 27.6107H8.85063V29.0732H0V27.6107H1.37239C2.12427 27.6107 2.3898 27.3 2.70006 26.5471L13.5869 0.667305L16.4183 0.0459305C16.6078 0.00820369 16.8011 -0.00637255 16.9941 0.00253744C17.3477 0.00253744 17.5685 0.178873 17.5685 0.489564C17.5685 1.02138 16.6391 1.15435 16.6391 2.08503C16.6603 2.37165 16.72 2.65411 16.8166 2.92473L25.0034 25.8767C25.4898 27.2944 25.9817 27.6051 26.9068 27.6051H28.2345V29.069ZM8.40902 17.1032H16.463L12.7456 6.60685L8.40902 17.1032Z" fill="#F96302"/>
<path d="M36.9931 0.84375L46.1223 20.3896C46.2546 20.6117 46.3437 20.7453 46.4315 20.7453C46.5192 20.7453 46.5708 20.6047 46.6516 20.3896L55.0328 0.84375H62.3539V2.26959H60.5014C59.8397 2.26959 59.752 2.49178 59.752 3.15971V21.0181C59.752 25.7836 59.7965 27.6088 61.8692 27.6088H63.4571V29.0783H52.3416V27.6088H54.1942C55.03 27.6088 55.0759 27.2531 55.0759 26.1844V5.47427L45.4174 27.6918C45.1082 28.3597 44.8881 28.7605 44.6681 28.7605C44.4912 28.7605 44.3143 28.4047 44.0064 27.7761L34.3953 6.31375V19.4952C34.3953 25.5066 34.4384 27.599 36.4679 27.599H38.893V29.0684H29.807V27.599H31.4395C32.4981 27.599 32.675 26.931 32.675 24.7866V7.03369C32.675 3.37764 32.5859 2.26959 30.1162 2.26959H28.793V0.84375H36.9931Z" fill="#F96302"/>
<path d="M78.2343 0.84375C84.5489 0.84375 88.0571 3.87169 88.0571 8.50431C88.0571 12.7347 84.2795 16.2085 78.5037 16.2085C77.3474 16.2085 76.0158 16.0299 74.4161 15.674V21.8185C74.4161 26.4061 74.4595 27.6086 76.5041 27.6086H78.188V29.0783H66.8132V27.6086H68.4564C69.3896 27.6086 69.4387 27.2963 69.4387 26.0939V8.10629C69.4387 3.51867 69.3054 2.27262 67.3057 2.27262H65.9727V0.846531L78.2343 0.84375ZM77.1229 14.6938C80.544 14.6938 82.9436 12.2889 82.9436 8.9051C82.9436 5.20773 79.8775 2.402 75.9274 2.402C74.8609 2.402 74.4175 2.5356 74.4175 3.07003V14.2044C75.4348 14.5152 76.323 14.6938 77.1229 14.6938Z" fill="#F96302"/>
<path d="M115.549 4.9187C115.461 5.62582 115.24 5.93406 114.93 5.93406C114.398 5.93406 114.355 5.31621 113.951 4.52122C113.287 3.10837 110.718 1.82801 107.487 1.82801C104.034 1.82801 100.713 3.50168 98.5393 6.5087C96.7218 8.98154 95.7948 11.9481 95.7948 15.2954C95.7948 23.1059 100.399 28.2803 106.907 28.2803C110.449 28.2803 113.459 26.7349 114.611 24.8353C115.097 23.9985 115.142 23.1129 115.761 23.1129C116.07 23.1129 116.293 23.29 116.293 23.7307C116.293 23.82 116.248 23.9525 116.248 24.085L115.894 27.8828C112.606 29.2247 109.087 29.9144 105.534 29.9135C96.1486 29.9135 90.5742 24.7028 90.5742 16.3554C90.5742 11.8072 92.252 7.83227 95.4453 4.9187C98.7124 1.94327 102.974 0.289779 107.398 0.28125C110.054 0.28125 112.844 0.811264 115.899 1.87125L115.549 4.9187Z" fill="white"/>
<path d="M124.038 4.35766C126.832 1.46474 130.512 0 135.211 0C143.547 0 149.001 5.65228 149.001 14.421C149.001 18.6943 147.405 22.7006 144.568 25.6385C141.863 28.4428 138.094 29.9118 133.438 29.9118C125.103 29.9118 119.648 24.2581 119.648 15.4894C119.653 11.2568 121.2 7.30119 124.038 4.35766ZM124.792 13.7491C124.792 22.5628 129.093 28.2165 134.812 28.2165C140.399 28.2165 143.813 23.8982 143.813 16.2428C143.813 7.34055 139.513 1.68684 133.838 1.68684C128.25 1.68684 124.792 6.04872 124.792 13.7491Z" fill="white"/>
</svg>