<svg xmlns="http://www.w3.org/2000/svg" width="27" height="29" viewBox="0 0 27 29" fill="none">
<path fill-rule="evenodd" clip-rule="evenodd" d="M6.06228 0.52666L25.2521 11.4544C25.7819 11.7563 26.2233 12.1979 26.5306 12.7333C26.8379 13.2688 27 13.8788 27 14.5C27 15.1212 26.8379 15.7312 26.5306 16.2667C26.2233 16.8021 25.7819 17.2437 25.2521 17.5456L6.06228 28.4733C5.44092 28.8273 4.7401 29.0087 4.02926 28.9997C3.31842 28.9906 2.62223 28.7913 2.00966 28.4216C1.39709 28.0519 0.889406 27.5246 0.536906 26.8919C0.184406 26.2592 -0.000672647 25.5431 1.83693e-06 24.8145V4.18551C-0.000672647 3.45693 0.184406 2.74082 0.536906 2.10812C0.889406 1.47541 1.39709 0.948081 2.00966 0.578369C2.62223 0.208657 3.31842 0.00939368 4.02926 0.000324082C4.7401 -0.00874552 5.44092 0.172691 6.06228 0.52666Z" fill="black"/>
</svg>