<svg xmlns="http://www.w3.org/2000/svg" width="77" height="57" viewBox="0 0 77 57" fill="none">
<path d="M59.2656 22.4653L76.1029 52.933C76.3774 53.4644 76.375 54.1052 76.0839 54.6281C75.7554 55.1609 75.2088 55.4724 74.5972 55.4724H67.0527C67.4834 53.5873 67.2188 51.586 66.2498 49.8889C66.2494 49.8882 66.249 49.8874 66.2486 49.8867L53.6644 27.5009L56.2207 22.5088C56.5221 21.9306 57.0846 21.5771 57.7002 21.5691C58.4908 21.625 58.9543 21.9105 59.2647 22.4637C59.265 22.4643 59.2653 22.4648 59.2656 22.4653Z" stroke="black" stroke-width="1.38793"/>
<path d="M60.8425 52.9039L60.8434 52.9056C61.1389 53.4284 61.1408 54.0947 60.8489 54.6192C60.5203 55.152 59.9737 55.4635 59.3622 55.4635H2.41471C1.83 55.4635 1.2542 55.1476 0.927936 54.6191C0.625582 54.0767 0.61586 53.4428 0.901372 52.9377L0.901433 52.9377L0.906158 52.9291L15.3527 26.501L20.5403 30.8904C20.5407 30.8908 20.5411 30.8911 20.5415 30.8915C21.9824 32.121 23.81 32.7891 25.675 32.7891C27.4344 32.7891 29.1163 32.2253 30.4874 31.1694C31.8585 32.2253 33.5404 32.7891 35.2999 32.7891C37.1631 32.7891 38.9912 32.1221 40.4014 30.9235L45.8868 26.2709L60.8425 52.9039Z" stroke="black" stroke-width="1.38793"/>
<path d="M36.3904 26.1741L36.3903 26.1741L36.3867 26.1772C36.0637 26.454 35.6787 26.5877 35.2983 26.5877C34.8628 26.5877 34.4329 26.4293 34.0886 26.0851L30.9765 22.973L30.4858 22.4823L29.9951 22.973L26.8831 26.0851C26.2439 26.7242 25.2441 26.7454 24.5865 26.1785L24.5865 26.1785L24.5799 26.1729L18.3755 20.9576L20.4738 17.158L20.4753 17.1553L28.9773 1.595L28.9786 1.59277C29.2735 1.04826 29.8404 0.704977 30.4858 0.704977H30.5273L30.5685 0.700033C31.0229 0.645502 31.6454 0.977961 31.961 1.56069L31.961 1.56074L31.9666 1.57081L40.6611 17.0028L40.6613 17.003L42.7854 20.7698L36.3904 26.1741Z" stroke="#F96302" stroke-width="1.38793"/>
</svg>